<svg viewBox="0 0 26 26" fill="none" xmlns="http://www.w3.org/2000/svg">
<path d="M6.42032 15.4659L5.59758 18.5373L2.59045 18.601C1.69176 16.9341 1.18201 15.027 1.18201 13.0003C1.18201 11.0406 1.65861 9.19254 2.50343 7.56528H2.50407L5.18126 8.0561L6.35403 10.7172C6.10857 11.4328 5.97479 12.201 5.97479 13.0003C5.97488 13.8679 6.13202 14.6991 6.42032 15.4659Z" fill="#FBBB00"/>
<path d="M24.6118 10.7922C24.7475 11.5071 24.8183 12.2454 24.8183 13C24.8183 13.8461 24.7293 14.6714 24.5598 15.4675C23.9845 18.1766 22.4813 20.5422 20.3988 22.2162L20.3982 22.2156L17.0261 22.0435L16.5489 19.0643C17.9307 18.2539 19.0105 16.9857 19.5794 15.4675H13.2599V10.7922H19.6716H24.6118Z" fill="#518EF8"/>
<path d="M20.3984 22.2158L20.399 22.2164C18.3737 23.8443 15.8009 24.8184 13.0003 24.8184C8.49967 24.8184 4.58669 22.3028 2.59058 18.6008L6.42045 15.4658C7.41849 18.1294 9.98797 20.0255 13.0003 20.0255C14.2951 20.0255 15.5081 19.6755 16.549 19.0645L20.3984 22.2158Z" fill="#28B446"/>
<path d="M20.5437 3.90262L16.7151 7.03702C15.6379 6.36367 14.3644 5.97468 13.0002 5.97468C9.91965 5.97468 7.30211 7.95778 6.35407 10.7169L2.50406 7.56496H2.50342C4.47031 3.77276 8.43264 1.18185 13.0002 1.18185C15.8677 1.18185 18.4969 2.2033 20.5437 3.90262Z" fill="#F14336"/>
</svg>
