<svg xmlns="http://www.w3.org/2000/svg" xmlns:xlink="http://www.w3.org/1999/xlink" width="40" zoomAndPan="magnify" viewBox="0 0 30 30.000001" height="40" preserveAspectRatio="xMidYMid meet" version="1.0"><defs><clipPath id="20d213aee6"><path d="M 27 24 L 29 24 L 29 26.855469 L 27 26.855469 Z M 27 24 " clip-rule="nonzero"/></clipPath><clipPath id="b28865798d"><path d="M 0.933594 2.902344 L 25 2.902344 L 25 26.855469 L 0.933594 26.855469 Z M 0.933594 2.902344 " clip-rule="nonzero"/></clipPath><clipPath id="0098148b6c"><path d="M 25 23 L 29.242188 23 L 29.242188 26.855469 L 25 26.855469 Z M 25 23 " clip-rule="nonzero"/></clipPath></defs><g clip-path="url(#20d213aee6)"><path  d="M 27.84375 25.316406 C 28.089844 25.316406 28.289062 25.121094 28.292969 24.878906 C 28.292969 24.871094 28.292969 24.859375 28.292969 24.847656 C 28.292969 24.519531 28.089844 24.363281 27.679688 24.363281 L 27.015625 24.363281 L 27.015625 26.089844 L 27.265625 26.089844 L 27.265625 25.335938 L 27.574219 25.335938 L 27.578125 25.34375 L 28.058594 26.089844 L 28.324219 26.089844 L 27.8125 25.320312 Z M 27.554688 25.140625 L 27.265625 25.140625 L 27.265625 24.558594 L 27.632812 24.558594 C 27.824219 24.558594 28.039062 24.589844 28.039062 24.835938 C 28.039062 25.117188 27.820312 25.144531 27.554688 25.144531 " fill-opacity="1" fill-rule="nonzero"/></g><g clip-path="url(#b28865798d)"><path  d="M 21.320312 23.152344 L 17.777344 23.152344 L 17.777344 17.644531 C 17.777344 16.328125 17.753906 14.636719 15.933594 14.636719 C 14.113281 14.636719 13.804688 16.070312 13.804688 17.546875 L 13.804688 23.152344 L 10.261719 23.152344 L 10.261719 11.824219 L 13.664062 11.824219 L 13.664062 13.371094 L 13.710938 13.371094 C 14.40625 12.195312 15.695312 11.492188 17.070312 11.542969 C 20.660156 11.542969 21.324219 13.886719 21.324219 16.9375 L 21.324219 23.152344 Z M 6.257812 10.273438 C 5.121094 10.273438 4.199219 9.363281 4.199219 8.234375 C 4.199219 7.105469 5.121094 6.191406 6.257812 6.191406 C 7.394531 6.191406 8.316406 7.105469 8.316406 8.234375 C 8.316406 9.359375 7.394531 10.273438 6.257812 10.273438 M 8.03125 23.152344 L 4.480469 23.152344 L 4.480469 11.824219 L 8.03125 11.824219 Z M 23.089844 2.925781 L 2.699219 2.925781 C 1.738281 2.914062 0.945312 3.679688 0.933594 4.636719 L 0.933594 24.949219 C 0.945312 25.90625 1.734375 26.671875 2.699219 26.664062 L 23.089844 26.664062 C 24.054688 26.675781 24.847656 25.910156 24.863281 24.949219 L 24.863281 4.636719 C 24.847656 3.675781 24.054688 2.910156 23.089844 2.925781 " fill-opacity="1" fill-rule="nonzero"/></g><g clip-path="url(#0098148b6c)"><path fill="#ffffff" d="M 27.585938 23.59375 C 26.683594 23.601562 25.960938 24.332031 25.96875 25.226562 C 25.976562 26.121094 26.714844 26.839844 27.617188 26.832031 C 28.515625 26.820312 29.242188 26.089844 29.230469 25.195312 C 29.222656 24.3125 28.503906 23.601562 27.617188 23.59375 L 27.585938 23.59375 M 27.585938 26.644531 C 26.792969 26.660156 26.144531 26.035156 26.128906 25.25 C 26.117188 24.464844 26.746094 23.820312 27.535156 23.808594 C 28.328125 23.792969 28.976562 24.417969 28.992188 25.203125 L 28.992188 25.226562 C 29.007812 25.992188 28.394531 26.628906 27.621094 26.644531 L 27.585938 26.644531 " fill-opacity="1" fill-rule="nonzero"/></g></svg>