<svg xmlns="http://www.w3.org/2000/svg" xmlns:xlink="http://www.w3.org/1999/xlink" width="40" zoomAndPan="magnify" viewBox="0 0 30 30.000001" height="40" preserveAspectRatio="xMidYMid meet" version="1.0"><defs><clipPath id="19ec6f0fa4"><path d="M 1.554688 1 L 28.40625 1 L 28.40625 27.851562 L 1.554688 27.851562 Z M 1.554688 1 " clip-rule="nonzero"/></clipPath></defs><g clip-path="url(#19ec6f0fa4)"><path  d="M 24.492188 4.910156 C 21.96875 2.394531 18.613281 1.007812 15.035156 1.007812 C 7.664062 1.007812 1.667969 6.972656 1.664062 14.304688 C 1.664062 16.648438 2.28125 18.9375 3.449219 20.953125 L 1.554688 27.84375 L 8.640625 25.992188 C 10.59375 27.050781 12.792969 27.609375 15.03125 27.609375 L 15.035156 27.609375 C 22.402344 27.609375 28.402344 21.644531 28.402344 14.316406 C 28.402344 10.761719 27.015625 7.421875 24.492188 4.910156 Z M 15.035156 25.367188 L 15.03125 25.367188 C 13.039062 25.367188 11.082031 24.832031 9.375 23.824219 L 8.96875 23.585938 L 4.761719 24.683594 L 5.882812 20.605469 L 5.621094 20.1875 C 4.507812 18.425781 3.921875 16.394531 3.921875 14.304688 C 3.925781 8.210938 8.910156 3.253906 15.039062 3.253906 C 18.007812 3.253906 20.796875 4.40625 22.894531 6.496094 C 24.992188 8.582031 26.148438 11.359375 26.148438 14.3125 C 26.144531 20.40625 21.160156 25.367188 15.035156 25.367188 Z M 21.128906 17.089844 C 20.796875 16.921875 19.15625 16.121094 18.847656 16.007812 C 18.542969 15.898438 18.320312 15.84375 18.097656 16.175781 C 17.875 16.507812 17.234375 17.257812 17.039062 17.476562 C 16.84375 17.699219 16.648438 17.726562 16.316406 17.5625 C 15.980469 17.394531 14.90625 17.042969 13.628906 15.910156 C 12.636719 15.03125 11.964844 13.941406 11.769531 13.609375 C 11.574219 13.277344 11.75 13.097656 11.917969 12.929688 C 12.066406 12.78125 12.25 12.542969 12.417969 12.347656 C 12.585938 12.15625 12.640625 12.015625 12.75 11.792969 C 12.863281 11.574219 12.808594 11.378906 12.722656 11.210938 C 12.640625 11.046875 11.972656 9.410156 11.691406 8.746094 C 11.421875 8.097656 11.144531 8.183594 10.941406 8.175781 C 10.746094 8.164062 10.523438 8.164062 10.300781 8.164062 C 10.078125 8.164062 9.71875 8.246094 9.410156 8.578125 C 9.105469 8.910156 8.242188 9.714844 8.242188 11.351562 C 8.242188 12.984375 9.4375 14.566406 9.605469 14.789062 C 9.773438 15.007812 11.960938 18.363281 15.3125 19.804688 C 16.109375 20.148438 16.734375 20.351562 17.21875 20.503906 C 18.019531 20.757812 18.746094 20.722656 19.324219 20.636719 C 19.964844 20.539062 21.296875 19.832031 21.578125 19.054688 C 21.855469 18.28125 21.855469 17.613281 21.773438 17.476562 C 21.6875 17.335938 21.464844 17.253906 21.132812 17.085938 Z M 21.128906 17.089844 " fill-opacity="1" fill-rule="evenodd"/></g></svg>