<svg xmlns="http://www.w3.org/2000/svg" xmlns:xlink="http://www.w3.org/1999/xlink" width="254" zoomAndPan="magnify" viewBox="0 0 190.5 85.499998" height="114" preserveAspectRatio="xMidYMid meet" version="1.0"><defs><clipPath id="7bfbcc935f"><path d="M 0.304688 0 L 189.699219 0 L 189.699219 85 L 0.304688 85 Z M 0.304688 0 " clip-rule="nonzero"/></clipPath><clipPath id="967ca28591"><path d="M 0.304688 0 L 16 0 L 16 15.550781 L 0.304688 15.550781 Z M 0.304688 0 " clip-rule="nonzero"/></clipPath><clipPath id="513fe7b8cc"><path d="M 174 69 L 189.519531 69 L 189.519531 84.132812 L 174 84.132812 Z M 174 69 " clip-rule="nonzero"/></clipPath><clipPath id="b7b58ca96b"><path d="M 0.246094 0.195312 L 15.503906 0.195312 L 15.503906 15.132812 L 0.246094 15.132812 Z M 0.246094 0.195312 " clip-rule="nonzero"/></clipPath><clipPath id="fca7d8a479"><rect x="0" width="16" y="0" height="16"/></clipPath><clipPath id="53f2c4e39a"><rect x="0" width="190" y="0" height="85"/></clipPath></defs><g clip-path="url(#7bfbcc935f)"><g transform="matrix(1, 0, 0, 1, 0.000000000000000056, 0)"><g clip-path="url(#53f2c4e39a)"><g clip-path="url(#967ca28591)"><path fill="#ffffff" d="M 0.304688 15.199219 L 1.277344 15.199219 L 1.277344 0.980469 L 15.496094 0.980469 L 15.496094 0.0078125 L 0.304688 0.0078125 L 0.304688 15.199219 " fill-opacity="1" fill-rule="nonzero"/></g><g clip-path="url(#513fe7b8cc)"><g transform="matrix(1, 0, 0, 1, 174, 69)"><g clip-path="url(#fca7d8a479)"><g clip-path="url(#b7b58ca96b)"><path fill="#ffffff" d="M 15.503906 0.289062 L 14.53125 0.289062 L 14.53125 14.507812 L 0.3125 14.507812 L 0.3125 15.480469 L 15.503906 15.480469 L 15.503906 0.289062 " fill-opacity="1" fill-rule="nonzero"/></g></g></g></g></g></g></g></svg>